{
  "accessors": [
    {
      "bufferView": 1,
      "componentType": 5126,
      "count": 192,
      "max": [
        0.5710840225219727,
        0.5710859894752502,
        0.4373599886894226
      ],
      "min": [
        -0.5710880160331726,
        -0.5710859894752502,
        0.13941200077533722
      ],
      "type": "VEC3"
    },
    {
      "bufferView": 1,
      "byteOffset": 2304,
      "componentType": 5126,
      "count": 192,
      "max": [
        0.8416005969047546,
        0.8416005969047546,
        -0.5401003360748291
      ],
      "min": [
        -0.8416005969047546,
        -0.8416005969047546,
        -0.9515771269798279
      ],
      "type": "VEC3"
    },
    {
      "bufferView": 0,
      "componentType": 5125,
      "count": 960,
      "type": "SCALAR"
    },
    {
      "bufferView": 1,
      "byteOffset": 4608,
      "componentType": 5126,
      "count": 642,
      "max": [
        2.479177951812744,
        2.479177951812744,
        9.004405975341797
      ],
      "min": [
        -2.479177951812744,
        -2.479177951812744,
        2.0754189491271973
      ],
      "type": "VEC3"
    },
    {
      "bufferView": 1,
      "byteOffset": 12312,
      "componentType": 5126,
      "count": 642,
      "max": [
        0.9954869747161865,
        0.9954869747161865,
        1.0
      ],
      "min": [
        -0.9954869747161865,
        -0.9954869747161865,
        -1.0
      ],
      "type": "VEC3"
    },
    {
      "bufferView": 0,
      "byteOffset": 3840,
      "componentType": 5125,
      "count": 3840,
      "type": "SCALAR"
    },
    {
      "bufferView": 1,
      "byteOffset": 20016,
      "componentType": 5126,
      "count": 865,
      "max": [
        0.905003011226654,
        0.428290992975235,
        7.128171920776367
      ],
      "min": [
        -0.8979679942131042,
        -0.42829200625419617,
        2.0373289585113525
      ],
      "type": "VEC3"
    },
    {
      "bufferView": 1,
      "byteOffset": 30396,
      "componentType": 5126,
      "count": 865,
      "max": [
        1.0,
        1.0,
        1.0
      ],
      "min": [
        -1.0,
        -1.0,
        -1.0
      ],
      "type": "VEC3"
    },
    {
      "bufferView": 0,
      "byteOffset": 19200,
      "componentType": 5125,
      "count": 4896,
      "type": "SCALAR"
    },
    {
      "bufferView": 1,
      "byteOffset": 40776,
      "componentType": 5126,
      "count": 2410,
      "max": [
        1.003931999206543,
        0.743353009223938,
        7.776717185974121
      ],
      "min": [
        -1.0193400382995605,
        -0.6363480091094971,
        5.725395202636719
      ],
      "type": "VEC3"
    },
    {
      "bufferView": 1,
      "byteOffset": 69696,
      "componentType": 5126,
      "count": 2410,
      "max": [
        0.9996501803398132,
        0.9991126656532288,
        0.9978502988815308
      ],
      "min": [
        -0.9999853372573853,
        -0.9990483522415161,
        -0.9981141686439514
      ],
      "type": "VEC3"
    },
    {
      "bufferView": 0,
      "byteOffset": 38784,
      "componentType": 5125,
      "count": 14400,
      "type": "SCALAR"
    },
    {
      "bufferView": 1,
      "byteOffset": 98616,
      "componentType": 5126,
      "count": 1142,
      "max": [
        1.1217859983444214,
        1.1135239601135254,
        2.2160329818725586
      ],
      "min": [
        -1.1135250329971313,
        -1.1307100057601929,
        0.07797600328922272
      ],
      "type": "VEC3"
    },
    {
      "bufferView": 1,
      "byteOffset": 112320,
      "componentType": 5126,
      "count": 1142,
      "max": [
        0.9996541142463684,
        0.9996357560157776,
        1.0
      ],
      "min": [
        -0.9996487498283386,
        -0.9996491074562073,
        -1.0
      ],
      "type": "VEC3"
    },
    {
      "bufferView": 0,
      "byteOffset": 96384,
      "componentType": 5125,
      "count": 6366,
      "type": "SCALAR"
    },
    {
      "bufferView": 1,
      "byteOffset": 126024,
      "componentType": 5126,
      "count": 672,
      "max": [
        0.965906023979187,
        0.1029219999909401,
        5.878678798675537
      ],
      "min": [
        -0.9187830090522766,
        -0.16907399892807007,
        3.388258934020996
      ],
      "type": "VEC3"
    },
    {
      "bufferView": 1,
      "byteOffset": 134088,
      "componentType": 5126,
      "count": 672,
      "max": [
        0.9998064637184143,
        0.9991588592529297,
        0.96287602186203
      ],
      "min": [
        -0.999818742275238,
        -0.9991216063499451,
        -0.9730933904647827
      ],
      "type": "VEC3"
    },
    {
      "bufferView": 0,
      "byteOffset": 121848,
      "componentType": 5125,
      "count": 3648,
      "type": "SCALAR"
    }
  ],
  "asset": {
    "extras": {
      "author": "Fishboe (https://sketchfab.com/ministephen)",
      "license": "CC-BY-4.0 (http://creativecommons.org/licenses/by/4.0/)",
      "source": "https://sketchfab.com/3d-models/edison-light-bulb-aeb0e4832f04463280510e550e2cdbd5",
      "title": "Edison Light Bulb"
    },
    "generator": "Sketchfab-12.68.0",
    "version": "2.0"
  },
  "bufferViews": [
    {
      "buffer": 0,
      "byteLength": 136440,
      "name": "floatBufferViews",
      "target": 34963
    },
    {
      "buffer": 0,
      "byteLength": 142152,
      "byteOffset": 136440,
      "byteStride": 12,
      "name": "floatBufferViews",
      "target": 34962
    }
  ],
  "buffers": [
    {
      "byteLength": 278592,
      "uri": "scene.bin"
    }
  ],
  "extensionsUsed": [
    "KHR_materials_clearcoat",
    "KHR_materials_transmission"
  ],
  "materials": [
    {
      "doubleSided": true,
      "name": "black",
      "pbrMetallicRoughness": {
        "baseColorFactor": [
          0.0,
          0.0,
          0.0,
          1.0
        ],
        "metallicFactor": 0.31878810975609756,
        "roughnessFactor": 0.0
      }
    },
    {
      "alphaMode": "BLEND",
      "doubleSided": true,
      "extensions": {
        "KHR_materials_clearcoat": {
          "clearcoatFactor": 0.513910061,
          "clearcoatRoughnessFactor": 0.0504954268
        }
      },
      "name": "glass",
      "pbrMetallicRoughness": {
        "baseColorFactor": [
          1.0,
          1.0,
          1.0,
          0.3553734756
        ],
        "roughnessFactor": 0.0
      }
    },
    {
      "alphaMode": "BLEND",
      "doubleSided": true,
      "extensions": {
        "KHR_materials_transmission": {
          "transmissionFactor": 0.998285061
        }
      },
      "name": "glass-thicker",
      "pbrMetallicRoughness": {
        "baseColorFactor": [
          0.64,
          0.64,
          0.64,
          0.25
        ],
        "roughnessFactor": 0.0
      }
    },
    {
      "doubleSided": true,
      "emissiveFactor": [
        0.875646214,
        0.121614797,
        0.0
      ],
      "name": "glow",
      "pbrMetallicRoughness": {
        "baseColorFactor": [
          1.0,
          0.2711979287,
          0.0,
          1.0
        ],
        "metallicFactor": 0.0,
        "roughnessFactor": 0.0
      }
    },
    {
      "doubleSided": true,
      "name": "gold",
      "pbrMetallicRoughness": {
        "baseColorFactor": [
          0.9406652058,
          0.6230234235,
          0.2058350729,
          1.0
        ],
        "roughnessFactor": 0.10194359760000005
      }
    },
    {
      "doubleSided": true,
      "name": "metal",
      "pbrMetallicRoughness": {
        "baseColorFactor": [
          0.0016779845853943619,
          0.001521605754016721,
          0.0014181197482533386,
          1.0
        ],
        "metallicFactor": 0.263910061,
        "roughnessFactor": 0.0
      }
    }
  ],
  "meshes": [
    {
      "name": "Object_0",
      "primitives": [
        {
          "attributes": {
            "NORMAL": 1,
            "POSITION": 0
          },
          "indices": 2,
          "material": 0,
          "mode": 4
        }
      ]
    },
    {
      "name": "Object_1",
      "primitives": [
        {
          "attributes": {
            "NORMAL": 4,
            "POSITION": 3
          },
          "indices": 5,
          "material": 1,
          "mode": 4
        }
      ]
    },
    {
      "name": "Object_2",
      "primitives": [
        {
          "attributes": {
            "NORMAL": 7,
            "POSITION": 6
          },
          "indices": 8,
          "material": 2,
          "mode": 4
        }
      ]
    },
    {
      "name": "Object_3",
      "primitives": [
        {
          "attributes": {
            "NORMAL": 10,
            "POSITION": 9
          },
          "indices": 11,
          "material": 3,
          "mode": 4
        }
      ]
    },
    {
      "name": "Object_4",
      "primitives": [
        {
          "attributes": {
            "NORMAL": 13,
            "POSITION": 12
          },
          "indices": 14,
          "material": 4,
          "mode": 4
        }
      ]
    },
    {
      "name": "Object_5",
      "primitives": [
        {
          "attributes": {
            "NORMAL": 16,
            "POSITION": 15
          },
          "indices": 17,
          "material": 5,
          "mode": 4
        }
      ]
    }
  ],
  "nodes": [
    {
      "children": [
        1
      ],
      "matrix": [
        1.0,
        0.0,
        0.0,
        0.0,
        0.0,
        2.220446049250313e-16,
        -1.0,
        0.0,
        0.0,
        1.0,
        2.220446049250313e-16,
        0.0,
        0.0,
        0.0,
        0.0,
        1.0
      ],
      "name": "Sketchfab_model"
    },
    {
      "children": [
        2,
        3,
        4,
        5,
        6,
        7
      ],
      "name": "bolb.obj.cleaner.materialmerger.gles"
    },
    {
      "mesh": 0,
      "name": "Object_2"
    },
    {
      "mesh": 1,
      "name": "Object_3"
    },
    {
      "mesh": 2,
      "name": "Object_4"
    },
    {
      "mesh": 3,
      "name": "Object_5"
    },
    {
      "mesh": 4,
      "name": "Object_6"
    },
    {
      "mesh": 5,
      "name": "Object_7"
    }
  ],
  "scene": 0,
  "scenes": [
    {
      "name": "Sketchfab_Scene",
      "nodes": [
        0
      ]
    }
  ]
}
